<svg id="7ef775fc-54d0-4dca-a380-8cb8385d7387" data-name="Calque 1" xmlns="http://www.w3.org/2000/svg" xmlns:xlink="http://www.w3.org/1999/xlink" viewBox="0 0 65 65"><defs><style>.f736ed23-58a8-4746-b494-6b4bf10f5500{fill:none;}.\36 769366f-4b05-4bce-8e1e-36bd57cfd267{fill:#1860aa;}.\37 7955a93-b16d-49c9-810a-cbacd5eb1e34,.e8ce6fd8-3420-4748-ba78-aa9d37092f6c{fill:#fff;}.\30 ca0e646-fa8c-4c0d-acc3-4fc07d5d91aa{fill:#d04236;}.\35 a7afa47-9646-4cfa-af45-6fe21474bb6c{fill:#283582;}.e8ce6fd8-3420-4748-ba78-aa9d37092f6c{fill-rule:evenodd;}.a19286e5-bd0c-43c3-8fb7-cacc9027fe9e{clip-path:url(#767ff27f-bdc2-45d3-a90c-41563f95c056);}.d96c28fa-b933-4e24-bf7d-6ec532483881{fill:#f29100;}.\37 e07799d-8320-42b2-8f17-f7311ad09d53{fill:#2e2868;}</style><clipPath id="767ff27f-bdc2-45d3-a90c-41563f95c056" transform="translate(-63.1 -457)"><rect class="f736ed23-58a8-4746-b494-6b4bf10f5500" x="71.5" y="481.7" width="48.5" height="15.28"/></clipPath></defs><title>Cambodia Post Logo SVG</title><g id="2dfbbd18-4aa3-4115-9b7a-54f853e2d8c4" data-name="Logo CP Path"><path class="6769366f-4b05-4bce-8e1e-36bd57cfd267" d="M119.3,489.5a23.6,23.6,0,1,1-23.6-23.6,23.6,23.6,0,0,1,23.6,23.6" transform="translate(-63.1 -457)"/><path class="77955a93-b16d-49c9-810a-cbacd5eb1e34" d="M111.3,491.8l-2.5-.2a16.3,16.3,0,0,1-14-15.4,16.9,16.9,0,0,1,3.3-11l0.5,0.4a16.4,16.4,0,0,0-3.2,10.6,15.7,15.7,0,0,0,13.5,14.8,16.4,16.4,0,0,0,10.4-1.9l0.3,0.5a17,17,0,0,1-8.2,2.1" transform="translate(-63.1 -457)"/><path class="77955a93-b16d-49c9-810a-cbacd5eb1e34" d="M77.7,505.2l-0.4-.4c5.9-5.2,10.3-8.9,14.5-12.5s8.6-7.2,14.5-12.5l0.4,0.4c-5.9,5.2-10.3,8.9-14.5,12.5s-8.6,7.2-14.5,12.5" transform="translate(-63.1 -457)"/><path class="77955a93-b16d-49c9-810a-cbacd5eb1e34" d="M110.5,481.9a8,8,0,0,1-4-1.6h0c-0.1-.1-1.9-1.9-1.9-3.9a2.8,2.8,0,0,1,.9-2,3.5,3.5,0,0,1,4-.4,8.6,8.6,0,0,1,2.1,1.3,6.8,6.8,0,0,1,1.3,1.6,3.5,3.5,0,0,1,.1,3.7,2.6,2.6,0,0,1-1.8,1.3h-0.6m-3.7-2.1c0.2,0.2,2.4,1.7,4.1,1.4a2,2,0,0,0,1.4-1c1.3-2.2-1.2-4.5-1.3-4.5h0s-3.2-2.9-5.3-.9a2.2,2.2,0,0,0-.7,1.6c0,1.6,1.6,3.3,1.7,3.4" transform="translate(-63.1 -457)"/><path class="77955a93-b16d-49c9-810a-cbacd5eb1e34" d="M73.2,482.3l-0.5-.4a31.6,31.6,0,0,1,12-10.1A21.9,21.9,0,0,1,95.6,470a24.6,24.6,0,0,1,11,3.7l-0.3.5a24,24,0,0,0-10.7-3.6,21.3,21.3,0,0,0-10.6,1.8,31,31,0,0,0-11.7,9.9" transform="translate(-63.1 -457)"/><path class="77955a93-b16d-49c9-810a-cbacd5eb1e34" d="M106,505.1l-3.3-.2a22.4,22.4,0,0,1-13.2-6,24.1,24.1,0,0,1-7.3-21.1,29.6,29.6,0,0,1,3.5-10.4l0.5,0.3A28.9,28.9,0,0,0,82.7,478a23.6,23.6,0,0,0,7.2,20.5c6.8,6.7,18.7,7.3,25.8,4l0.2,0.5a24.3,24.3,0,0,1-10,2" transform="translate(-63.1 -457)"/><path class="77955a93-b16d-49c9-810a-cbacd5eb1e34" d="M74.7,500.9H74.1a25.7,25.7,0,0,1,3.6-12.1c5.7-9,12.9-11.5,18-12.1a22.7,22.7,0,0,1,9.7,1l-0.2.6a22.6,22.6,0,0,0-9.5-1c-4.9.5-12,3-17.5,11.8a25.6,25.6,0,0,0-3.5,11.8" transform="translate(-63.1 -457)"/><path class="77955a93-b16d-49c9-810a-cbacd5eb1e34" d="M102.3,513.3a32.1,32.1,0,0,1-20.8-9.6C72.3,494.4,73,480,73,479.9h0.6c0,0.1-.7,14.2,8.3,23.4a31.5,31.5,0,0,0,20.4,9.4v0.6Z" transform="translate(-63.1 -457)"/><path class="77955a93-b16d-49c9-810a-cbacd5eb1e34" d="M108.7,474c-0.9-4.3-2.5-5.9-2.6-5.9l0.4-.4c0.1,0.1,1.9,1.8,2.8,6.3h-0.6Z" transform="translate(-63.1 -457)"/><rect class="77955a93-b16d-49c9-810a-cbacd5eb1e34" x="110.8" y="473.9" width="3.3" height="0.6" transform="translate(-354.4 -255.7) rotate(-42.6)"/><path class="77955a93-b16d-49c9-810a-cbacd5eb1e34" d="M111.1,508.2l-0.5-.3a26.8,26.8,0,0,0,5.1-17.2c-0.1-4-3.2-10-3.3-10.1l0.5-.3c0.1,0.3,3.3,6.2,3.3,10.3a27.4,27.4,0,0,1-5.2,17.6" transform="translate(-63.1 -457)"/><path class="77955a93-b16d-49c9-810a-cbacd5eb1e34" d="M85.6,510.1a21.5,21.5,0,0,1-3.8-.3v-0.6a25.2,25.2,0,0,0,7.6,0,23.3,23.3,0,0,0,14.3-7.6,22.8,22.8,0,0,0,6-13.8,17.2,17.2,0,0,0-.7-6.2l0.6-.2a17.4,17.4,0,0,1,.7,6.4,23.4,23.4,0,0,1-6.2,14.2,23.9,23.9,0,0,1-14.7,7.8,28,28,0,0,1-4,.3" transform="translate(-63.1 -457)"/><path class="0ca0e646-fa8c-4c0d-acc3-4fc07d5d91aa" d="M66.6,490q0-.4,0-0.7a29.1,29.1,0,1,1,58.2,0c0,0.2,0,.9,0,1.1h0.4c0-.2,0-0.9,0-1.1a29.5,29.5,0,0,0-59,0q0,0.4,0,.7h0.4Z" transform="translate(-63.1 -457)"/><path class="0ca0e646-fa8c-4c0d-acc3-4fc07d5d91aa" d="M67.5,490c0-.2,0-0.3,0-0.5a28.2,28.2,0,0,1,56.4,0c0,0.2,0,.7,0,0.9h0.4c0-.2,0-0.7,0-0.9a28.6,28.6,0,0,0-57.2,0c0,0.2,0,.3,0,0.5h0.4Z" transform="translate(-63.1 -457)"/><path class="0ca0e646-fa8c-4c0d-acc3-4fc07d5d91aa" d="M68.4,490v-0.2a27.2,27.2,0,1,1,54.5,0v0.6h0.4v-0.6a27.6,27.6,0,1,0-55.3,0V490h0.4Z" transform="translate(-63.1 -457)"/><path class="0ca0e646-fa8c-4c0d-acc3-4fc07d5d91aa" d="M69.4,490h0a26.2,26.2,0,1,1,52.4,0v0.3l0.4,0.2v-0.3c0-14.8-11.9-27.1-26.6-27.1A26.8,26.8,0,0,0,69,489.9h0.4Z" transform="translate(-63.1 -457)"/><path class="0ca0e646-fa8c-4c0d-acc3-4fc07d5d91aa" d="M95.6,464.3c13.9,0,25.2,11.9,25.2,26.1h0.4c0-14.4-11.5-26.5-25.6-26.5A25.9,25.9,0,0,0,70,490h0.4a25.5,25.5,0,0,1,25.2-25.7" transform="translate(-63.1 -457)"/><path class="5a7afa47-9646-4cfa-af45-6fe21474bb6c" d="M70.5,489.8l-4.3.2,0.2,2.7,1.2,0.3a29.1,29.1,0,0,0,1.6,6l-1,1a34.4,34.4,0,0,0,3.6,6.7l1.6-.3a16.1,16.1,0,0,0,4.1,4.5l-0.4,1.2a20.4,20.4,0,0,0,6.8,4.3l1-.9a27.6,27.6,0,0,0,6,1.7l0.3,1.3s4.9,0.9,7.6.1l0.5-1.3s4-.4,5.9-1.4l0.8,0.8s2,0.3,7.3-3.8l-0.3-1.2s3.4-2.6,4.5-4.4l1.3,0.4s3.6-5.2,4.3-7.4l-1.1-.9a19.4,19.4,0,0,0,1.6-6.1l1.3-.2,0.2-2.8h-4.3s-1,24.2-26,24.4c-13.4.1-24.4-13.4-24.4-24.8" transform="translate(-63.1 -457)"/><path class="e8ce6fd8-3420-4748-ba78-aa9d37092f6c" d="M98.7,474.8a3.7,3.7,0,0,0,1.5-.6,4.8,4.8,0,0,0-1.5-.4l-0.9.2H97.7c0,0.5,0,.9,0,1.4a0.6,0.6,0,0,1-.5.7H96.4a0.8,0.8,0,0,1-.6-0.7c0-.2,0-0.5,0-0.7h0.5a1.2,1.2,0,0,0,.9-0.2,0.6,0.6,0,0,0,.3-0.4H96.2a0.7,0.7,0,0,1,0-1.3h0.3l-0.7-.2c0-.2,0-0.4,0-0.7h0l0.9-.6a0.7,0.7,0,0,1,.8,0l0.6,0.3a0.5,0.5,0,0,0,.8,0l0.4-.3a0.5,0.5,0,0,1,.5-0.1l0.5,0.2,0.8,0.2h0l-0.2.4a0.7,0.7,0,0,1-.9.3l-0.7-.2a0.6,0.6,0,0,0-.8.1l-0.3.2H97.7l-0.5-.3-0.3-.2a0.5,0.5,0,0,0-.5,0l0.6,0.3-0.2.3h0.5l0.4,0.2L98,473a1.5,1.5,0,0,1,.9-0.3l1.1,0.2,0.7,0.2h0.1c0,0.9,0,1.7,0,2.6h0l-0.2.2a0.7,0.7,0,0,1-.9.1,1.7,1.7,0,0,1-.8-1.3,0.4,0.4,0,0,1,0-.1m1.6-.4-0.3.2a0.2,0.2,0,0,0,0,.2h0.3c0-.1,0-0.2,0-0.4" transform="translate(-63.1 -457)"/><path class="e8ce6fd8-3420-4748-ba78-aa9d37092f6c" d="M90.3,471.8l-0.3.5a0.5,0.5,0,0,1-.7.3H89.2a0.6,0.6,0,0,0-1,.4h1.2a0.9,0.9,0,0,1,.6.9,1,1,0,0,1-.4.8l-0.3.2,0.2,0.2,0.9,0.2h1.2a0.7,0.7,0,0,0,.5-0.5,0.3,0.3,0,0,0-.2-0.4,1.3,1.3,0,0,0-1-.1H90.6c0-.5,0-1.1,0-1.6a0.6,0.6,0,0,1,.2-0.5l0.6-.4h0.3l0.4,0.2,0.7,0.2a2.2,2.2,0,0,1-.4.8,0.4,0.4,0,0,1-.4.1H91.4a0.5,0.5,0,0,0-.4.4h0.5a1.2,1.2,0,0,1,1.3,1,1.9,1.9,0,0,1-1.1,2.2l-1.1.2-1.4-.2a1.7,1.7,0,0,1-1.2-1.2v-0.2H89l0.4-.2a0.2,0.2,0,0,0,.1-0.2H87.9c0-.6,0-1.1,0-1.7A0.5,0.5,0,0,1,88,472l0.8-.6h0.4l0.5,0.2,0.6,0.2" transform="translate(-63.1 -457)"/><path class="77955a93-b16d-49c9-810a-cbacd5eb1e34" d="M94.8,475.6a0.7,0.7,0,1,1-.7-0.7,0.7,0.7,0,0,1,.7.7" transform="translate(-63.1 -457)"/><path class="77955a93-b16d-49c9-810a-cbacd5eb1e34" d="M102.7,475.6a0.7,0.7,0,1,1-.7-0.7,0.7,0.7,0,0,1,.7.7" transform="translate(-63.1 -457)"/><path class="77955a93-b16d-49c9-810a-cbacd5eb1e34" d="M102.3,506.1a0.7,0.7,0,1,1-.7-0.7,0.7,0.7,0,0,1,.7.7" transform="translate(-63.1 -457)"/><path class="77955a93-b16d-49c9-810a-cbacd5eb1e34" d="M95.3,506.1a0.7,0.7,0,1,1-.7-0.7,0.7,0.7,0,0,1,.7.7" transform="translate(-63.1 -457)"/><path class="77955a93-b16d-49c9-810a-cbacd5eb1e34" d="M91.5,504.7l1.3,0.4a2.4,2.4,0,0,1-.4.9l-0.7.5-1,.2-1.3-.2a2,2,0,0,1-.8-0.8,2.7,2.7,0,0,1-.4-1.4,2.4,2.4,0,0,1,.6-1.8,2.8,2.8,0,0,1,3.1-.3,2.1,2.1,0,0,1,.8,1.1l-1.3.3v-0.3L91,503H90.6a0.9,0.9,0,0,0-.8.4,1.7,1.7,0,0,0-.2.9,1.8,1.8,0,0,0,.2,1.1,0.9,0.9,0,0,0,1.3.1,1.5,1.5,0,0,0,.3-0.7" transform="translate(-63.1 -457)"/><path class="77955a93-b16d-49c9-810a-cbacd5eb1e34" d="M96.3,501.9h2.4a1.7,1.7,0,0,1,1.2.4,1.4,1.4,0,0,1,.4,1.1,1.4,1.4,0,0,1-.4,1.1,1.9,1.9,0,0,1-1.3.4H97.7v1.7H96.3v-4.7Zm1.5,2h0.9a0.5,0.5,0,0,0,.2-0.4,0.5,0.5,0,0,0-.1-0.4l-0.6-.2H97.7v1Z" transform="translate(-63.1 -457)"/><g class="a19286e5-bd0c-43c3-8fb7-cacc9027fe9e"><g class="a19286e5-bd0c-43c3-8fb7-cacc9027fe9e"><polygon class="d96c28fa-b933-4e24-bf7d-6ec532483881" points="55 34.7 45.7 39.3 43.5 33.9 55 34.7"/><polygon class="d96c28fa-b933-4e24-bf7d-6ec532483881" points="54.6 34.2 32.9 32.7 19.4 25.3 54.6 34.2"/><polygon class="5a7afa47-9646-4cfa-af45-6fe21474bb6c" points="43 33.9 45.2 39.4 10.7 30.9 27 30 27.2 30.2 32.7 33.2 32.7 33.2 43 33.9"/><polygon class="5a7afa47-9646-4cfa-af45-6fe21474bb6c" points="26.2 29.6 9.9 30.4 18.6 25.4 26.2 29.6"/><path class="77955a93-b16d-49c9-810a-cbacd5eb1e34" d="M73,487.4l16.2-.8-7.5-4.2ZM96,489.8l21.8,1.5-35.2-8.9Zm12.3,6.7-2.2-5.5-10.2-.7h0l-5.5-3H90.1l-16.2.8Zm11.7-5.1L108.5,497h-0.1l-37-9.2L82,481.7h0.1Zm-1.9.4-11.5-.8,2.2,5.4Z" transform="translate(-63.1 -457)"/></g></g><path class="7e07799d-8320-42b2-8f17-f7311ad09d53" d="M95.6,522a32.5,32.5,0,1,1,32.5-32.5A32.5,32.5,0,0,1,95.6,522Zm0-64.4a31.9,31.9,0,1,0,31.9,31.9A31.9,31.9,0,0,0,95.6,457.6Z" transform="translate(-63.1 -457)"/></g></svg>