<svg xmlns="http://www.w3.org/2000/svg" viewBox="0 0 564.98 564.97"><defs><style>.cls-1,.cls-4,.cls-7{fill:#fff;}.cls-1{stroke:#244a9a;stroke-width:4.5px;}.cls-1,.cls-6{stroke-miterlimit:10;}.cls-2{fill:#e94268;}.cls-3{fill:#244a9a;}.cls-3,.cls-7{fill-rule:evenodd;}.cls-5{fill:#2dafe6;}.cls-6{fill:none;stroke:#fff;stroke-width:1.8px;}.cls-8{fill:#f39200;}</style></defs><title>Asset 1</title><g id="Layer_2" data-name="Layer 2"><g id="Calque_1" data-name="Calque 1"><path class="cls-1" d="M562.73,282.47c0,154.75-125.49,280.25-280.26,280.25S2.25,437.22,2.25,282.47,127.72,2.25,282.47,2.25,562.73,127.72,562.73,282.47Z"/><path class="cls-2" d="M64.93,283.16c0-1.35-.19-2.65-.19-4,0-119.14,96.94-216.09,216.1-216.09S496.92,160,496.92,279.16c0,1.36-.17,2.66-.19,4h4.8c0-1.35.21-2.65.21-4,0-121.79-99.09-220.87-220.9-220.87S59.94,157.36,59.94,279.16c0,1.36.18,2.66.21,4Z"/><path class="cls-2" d="M55.83,283.16c0-1.35-.21-2.65-.21-4C55.62,155,156.66,54,280.83,54S506,155,506,279.16c0,1.36-.18,2.66-.19,4h4.8c0-1.35.21-2.65.21-4,0-126.81-103.18-230-230-230s-230,103.17-230,230c0,1.36.18,2.66.21,4Z"/><path class="cls-2" d="M46.35,283.16c0-1.35-.21-2.65-.21-4,0-129.4,105.29-234.68,234.69-234.68S515.5,149.75,515.5,279.16c0,1.36-.18,2.66-.19,4h4.8c0-1.35.21-2.65.21-4,0-132-107.44-239.46-239.48-239.46S41.35,147.12,41.35,279.16c0,1.36.18,2.66.21,4Z"/><path class="cls-2" d="M36.46,283.16c0-1.35-.19-2.65-.19-4C36.27,144.3,146,34.6,280.83,34.6S525.37,144.3,525.37,279.16c0,1.36-.18,2.66-.19,4H530c0-1.35.21-2.65.21-4,0-137.49-111.88-249.35-249.35-249.35S31.47,141.67,31.47,279.16c0,1.36.18,2.66.21,4Z"/><path class="cls-2" d="M26.17,283.16c0-1.35-.21-2.65-.21-4C26,138.63,140.29,24.3,280.83,24.3S535.68,138.63,535.68,279.16c0,1.36-.19,2.66-.21,4h4.81c0-1.35.19-2.65.19-4C540.47,136,424,19.51,280.83,19.51S21.18,136,21.18,279.16c0,1.36.18,2.66.19,4Z"/><path class="cls-3" d="M537.59,312.78a253.09,253.09,0,0,0,2.38-32H21A261.91,261.91,0,0,0,23.8,314.5L39,315.76s6,41.93,10.75,46.59l-12.22,5.82A256,256,0,0,0,63.9,419.49l13.42-5.21c2.68,8.67,39,47.26,39,47.26l-9.67,7.18a260.6,260.6,0,0,0,64.7,42.47l2.72-13c5.37,4.67,68.5,22,68.5,22l-1,12.12a258.92,258.92,0,0,0,38.92,3.19,264.18,264.18,0,0,0,35.44-2.66l.5-12.65s54.39-13.31,68.5-22.63l3.87,14.25a261,261,0,0,0,64.36-41.91l-9.8-10.29c8.72-9.32,40.31-45.93,40.31-45.93l12.83,6.93a255,255,0,0,0,28.26-55.86l-16.24-5c10.08-24.63,10.75-45.26,10.75-45.26Z"/><path class="cls-4" d="M497.79,281.43c0,119.43-96.76,216.31-216.11,216.31S65.61,400.86,65.61,281.43,162.34,65.09,281.68,65.09,497.79,161.94,497.79,281.43Z"/><path class="cls-5" d="M480.82,277.85c0,109.89-89.11,199-199,199s-199-89.14-199-199,89.11-199,199-199S480.82,167.93,480.82,277.85Z"/><path class="cls-6" d="M312.44,79.47S213.94,150,297.79,254.53c0,0,79.21,80.55,187,13.31"/><path class="cls-6" d="M419.14,172.48c4,15-3.41,27.19-16.43,27.18S376,187.41,372.06,172.38s3.41-27.21,16.42-27.18S415.22,157.45,419.14,172.48Z"/><path class="cls-6" d="M372.34,157S210.6,27.22,91.79,207.94"/><path class="cls-6" d="M372.06,172.38S156.68,143,97.78,376.67"/><path class="cls-6" d="M381.33,190s-140.78,88.86-252.6,221.65"/><path class="cls-6" d="M402.71,199.66s16.56,163-243,245.9"/><path class="cls-6" d="M418.27,191s91.85,185.7-97.84,291.53"/><path class="cls-6" d="M160.68,109.09S73.82,438.57,454.21,395.64"/><path class="cls-6" d="M82.8,215.92s10,267.57,294.53,247.6"/><path class="cls-6" d="M419.14,172.48s41.06,10.5,55,32.46"/><line class="cls-6" x1="409.28" y1="153.02" x2="426.25" y2="132.06"/><path class="cls-6" d="M393.31,145s-12-48.92-40.93-59.9"/><path class="cls-4" d="M200.89,420.62V440H193.5V389.66q8.38-.35,10.14-.35,23.61,0,23.6,14.67,0,17-20.87,17C205.54,421,203.71,420.85,200.89,420.62Zm0-24.78v18.6c3.13.22,4.8.33,5,.33q13.77,0,13.77-10.05,0-9.21-14.7-9.22A33.7,33.7,0,0,0,200.89,395.84Z"/><path class="cls-4" d="M234.56,430.36a5.53,5.53,0,0,1,3.92,1.5,4.78,4.78,0,0,1,1.62,3.63,4.86,4.86,0,0,1-1.62,3.67,5.81,5.81,0,0,1-7.85,0,4.86,4.86,0,0,1-1.62-3.67,4.78,4.78,0,0,1,1.62-3.63A5.56,5.56,0,0,1,234.56,430.36Z"/><path class="cls-4" d="M280.65,395.84V440h-7.39V395.84H256v-6.18h42.67v6.18Z"/><path class="cls-4" d="M305.92,430.36a5.51,5.51,0,0,1,3.92,1.5,4.79,4.79,0,0,1,1.64,3.63,4.88,4.88,0,0,1-1.64,3.67,5.81,5.81,0,0,1-7.85,0,4.86,4.86,0,0,1-1.62-3.67,4.78,4.78,0,0,1,1.62-3.63A5.56,5.56,0,0,1,305.92,430.36Z"/><path class="cls-4" d="M366.85,391.52l-2.47,5.88c-2.37-1.61-6.1-2.4-11.18-2.4a13.58,13.58,0,0,0-11.45,5.71c-2.87,3.79-4.31,8.69-4.31,14.68q0,8.59,4.42,13.95a14.18,14.18,0,0,0,11.41,5.32c5.09,0,9-1.65,11.73-5l4.08,5.26c-4.28,4-9.83,5.93-16.58,5.93-7.09,0-12.65-2.34-16.72-7.11s-6.12-11-6.12-18.76c0-7.5,2.19-13.74,6.52-18.72A21.34,21.34,0,0,1,353,388.8Q361.85,388.8,366.85,391.52Z"/><path class="cls-7" d="M353.7,143.61c5-.64,9.29-2.68,13.55-5.34-4.41-1.61-8.68-3.24-13.33-3.38a18.41,18.41,0,0,0-8.31,1.78,1.07,1.07,0,0,0-.71,1.15c0,4.17,0,8.33,0,12.51,0,3.62-1.25,5.27-4.83,6.14a16.25,16.25,0,0,1-6.93.11c-3.37-.68-5.38-2.94-5.77-6.66-.19-2.05,0-4.12,0-6.12a35.9,35.9,0,0,0,4.24,1.1,10.6,10.6,0,0,0,7.83-1.62,5.23,5.23,0,0,0,2.33-3.73,45.38,45.38,0,0,1-4.62,1.11,12.11,12.11,0,0,1-6.27-.79c-2.55-1-3.61-3.05-3.62-5.7s.94-4.69,3.45-5.77c.94-.39,2-.62,3-.94a11.14,11.14,0,0,0-6.46-1.5c0-2,0-3.9,0-5.82a1.06,1.06,0,0,1,.42-.61l8.2-5.56a6.2,6.2,0,0,1,6.79-.26c1.73.93,3.41,2,5.1,3,3.24,1.9,3.84,1.87,6.82-.36,1.14-.85,2.26-1.73,3.45-2.55a4.73,4.73,0,0,1,4.83-.51c1.51.67,3,1.39,4.51,2.12a16.94,16.94,0,0,0,6.78,1.87,3.52,3.52,0,0,1-.18.64c-.62,1.14-1.15,2.33-1.87,3.41-2.12,3.16-4,3.94-7.65,3a29.88,29.88,0,0,1-6.1-2.19,5.68,5.68,0,0,0-7.22,1.21,16.11,16.11,0,0,1-2.91,2.08,3.81,3.81,0,0,1-3.84.22c-1.44-.72-2.87-1.53-4.27-2.32-1.05-.57-2-1.18-3-1.8-1.61-1-3.15-.78-4.8.28a10.88,10.88,0,0,1,5.51,2.79c-.65.93-1.29,1.82-1.9,2.72a27.5,27.5,0,0,1,4.12,1,29.77,29.77,0,0,1,3.83,2.14c1.05-.82,2.33-1.87,3.69-2.8,2.32-1.59,4.67-3,7.6-3a37.77,37.77,0,0,1,9.54,1.54c2,.51,4,1.15,5.94,1.71a.87.87,0,0,1,.73,1c0,7.77,0,15.53,0,23.31a2,2,0,0,1-.44,1.15,18.57,18.57,0,0,1-1.44,1.51c-2.58,2.57-5,2.87-8.29,1a14.75,14.75,0,0,1-7.43-11.33A3.84,3.84,0,0,1,353.7,143.61Zm14.63-3.29a20.53,20.53,0,0,0-2.29,2.14,1.63,1.63,0,0,0,0,1.4,1.27,1.27,0,0,0,1.64.9c.33-.11.62-.71.68-1.14C368.4,142.62,368.33,141.58,368.33,140.32Z"/><path class="cls-7" d="M262.45,137.64v-4.53c0-2.7,0-5.41,0-8.11a3,3,0,0,1,.53-1.73,24.94,24.94,0,0,1,15.7-9.87,32.12,32.12,0,0,1,14.66.39,20.64,20.64,0,0,1,11,7.31c2.08,2.75,3,5.82,1.51,9.17-1.68,3.65-4.41,6-8.54,6.53a16.08,16.08,0,0,1-7.31-.61c-3.9-1.35-5.21-7-2.3-9.91,1.48-1.53,3.47-1.62,5.41-1.39a11.15,11.15,0,0,1,2.94.93,1.75,1.75,0,0,1,1.14,1.69,1.46,1.46,0,0,0,1.36,1.5,8.33,8.33,0,0,0,2.27,0,1.36,1.36,0,0,0,.92-2.32,6.21,6.21,0,0,0-1.77-1.57,22.44,22.44,0,0,0-9.37-2.9,48.78,48.78,0,0,0-14.34.57,23.59,23.59,0,0,0-8.39,3.83,12.05,12.05,0,0,0,1.22-.08,15.9,15.9,0,0,1,7.29.75c3.62,1.25,5.38,3.81,5.55,7.79.14,3.47-1.44,6.07-3.92,8.28-.76.68-1.59,1.29-2.4,1.93,1.72,1.91,3.8,2.43,5.93,1.14a35.65,35.65,0,0,0,5.09-3.83,15.26,15.26,0,0,1,10.89-4c4.2.18,8.32,3.65,8.94,7.7.87,5.52-4,10.93-8.75,10.51a19.27,19.27,0,0,1-4.2-.68,4.58,4.58,0,0,1-3.12-4.24,17.36,17.36,0,0,1,0-1.9c0-2.26,2.52-3.7,4.49-4,.67-.07,1.41-.33,1.72.78.07.3,1,.58,1.51.51s1-.68,1-1a2.1,2.1,0,0,0-.9-1.48c-2.23-.85-4.55-1-6.52.6a21.6,21.6,0,0,0-2.87,3.18,13.8,13.8,0,0,0-1.22,2.05c-2.26,4.09-5.81,5.95-10.39,6.17a15.19,15.19,0,0,1-12-4.87,8.57,8.57,0,0,1-2.72-6.55c0-1,0-2.05,0-3.36h4.3a18.89,18.89,0,0,0,7-1.11,8,8,0,0,0,2.8-1.79c1.21-1.29.67-2.79-1.1-2.93a28.6,28.6,0,0,0-5.87.08C267.2,136.6,264.86,137.19,262.45,137.64Z"/><path class="cls-7" d="M215,117c-.85,1.58-1.59,3.22-2.52,4.74-1.71,2.8-3.09,3.33-6.28,2.62a8.33,8.33,0,0,1-1.8-.6c-4-1.93-7-.32-8.56,3.58,1.47-.21,2.93-.44,4.41-.61a16,16,0,0,1,6.42.53c3.59,1.05,5.52,3.77,5.71,7.79.15,3.19-1.48,5.44-3.76,7.36-.67.55-1.36,1-2.27,1.73a16,16,0,0,0,2.16,1.5,20.57,20.57,0,0,0,7.95,1.69,28.14,28.14,0,0,0,11.07-1.1c2.33-.79,4.17-2.08,4.78-4.65.47-2,.11-2.87-1.64-3.92-2.72-1.62-5.66-1.48-8.63-1-1.57.26-3.11.68-4.8,1.07v-1.1c0-4.84.08-9.69,0-14.53a5.8,5.8,0,0,1,2.08-4.85c1.65-1.41,3.48-2.68,5.24-4a2.42,2.42,0,0,1,2.65-.21c1.18.6,2.41,1.14,3.59,1.76a15.3,15.3,0,0,0,6.17,2c-.82,2.61-1.5,5.2-3.31,7.29-1,1.18-2.34.76-3.55.6a26.32,26.32,0,0,1-2.57-.83,10.55,10.55,0,0,0-3.09-.61c-2.25.12-3.48,1.47-4,4,1.5-.24,3-.55,4.48-.69a10.57,10.57,0,0,1,11.68,8.64c2.07,9.32-3.63,16.29-10.19,19.44a23.74,23.74,0,0,1-9.87,2.19A36.35,36.35,0,0,1,204,155.38c-5.46-1.8-9.36-5.21-10.82-11-.18-.67-.24-1.37-.37-2.18.62-.06,1.14-.12,1.65-.12a30.82,30.82,0,0,0,8.79-1.08,15.8,15.8,0,0,0,3.15-1.46,1.89,1.89,0,0,0,1.05-2.09c-.21-.9-1-1.15-1.86-1.28-3.12-.46-6.16.15-9.21.75-1.14.21-2.26.54-3.49.85,0-.33-.06-.65-.06-1,0-5.08,0-10.15,0-15.21a4.6,4.6,0,0,1,1.29-3.36,24.5,24.5,0,0,1,7.43-5.13,3.56,3.56,0,0,1,2-.11,6.91,6.91,0,0,1,1.77.61c1.53.68,3,1.47,4.56,2S213.14,116.48,215,117Z"/><circle class="cls-4" cx="245.29" cy="151.28" r="5.24"/><circle class="cls-4" cx="313.93" cy="151.28" r="5.24"/><polygon class="cls-8" points="66.83 142.71 367.69 254.53 325.08 299.79 494.14 401.63 221.25 295.14 261.85 254.53 66.83 142.71"/></g></g></svg>