<?xml version="1.0" encoding="utf-8"?>
<!-- Generator: Adobe Illustrator 21.1.0, SVG Export Plug-In . SVG Version: 6.00 Build 0)  -->
<svg version="1.1" id="Layer_1" xmlns="http://www.w3.org/2000/svg" xmlns:xlink="http://www.w3.org/1999/xlink" x="0px" y="0px"
	 viewBox="0 0 1280 1280" style="enable-background:new 0 0 1280 1280;" xml:space="preserve">
<style type="text/css">
	.st0{fill:#FFFFFF;}
	.st1{fill:none;stroke:#244999;stroke-width:1.335;stroke-miterlimit:10;}
	.st2{fill:#E84267;}
	.st3{fill:#244999;}
	.st4{fill:#2BAEE5;}
	.st5{fill:none;stroke:#FFFFFF;stroke-width:0.534;stroke-miterlimit:10;}
	.st6{fill:#F29100;}
</style>
<g>
	<path class="st0" d="M1269.2,640c0,348.1-282.2,629-629,629c-348.1,0-629-282.2-629-629s282.2-629,629-629
		C987,9.7,1269.2,291.9,1269.2,640"/>
	<path class="st1" d="M1269.2,640c0,348.1-282.2,629-629,629c-348.1,0-629-282.2-629-629s282.2-629,629-629
		C987,9.7,1269.2,291.9,1269.2,640z"/>
	<path class="st2" d="M151,641.3c0-2.7,0-5.4,0-9.4c0-267.5,217.7-485.2,485.2-485.2s485.2,217.7,485.2,485.2c0,2.7,0,5.4,0,9.4
		h10.8c0-2.7,0-5.4,0-9.4C1132.1,357.8,909,136,636.2,136C362,136,140.2,359.1,140.2,631.9c0,2.7,0,5.4,0,9.4
		C140.2,641.3,151,641.3,151,641.3z"/>
	<path class="st2" d="M130.8,641.3c0-2.7,0-5.4,0-9.4c0-279.6,227.1-505.3,505.3-505.3s505.3,227.1,505.3,505.3c0,2.7,0,5.4,0,9.4
		h10.8c0-2.7,0-5.4,0-9.4c0-284.9-231.2-516.1-516.1-516.1S120.1,347,120.1,631.9c0,2.7,0,5.4,0,9.4
		C120.1,641.3,130.8,641.3,130.8,641.3z"/>
	<path class="st2" d="M109.3,641.3c0-2.7,0-5.4,0-9.4c0-290.3,236.5-526.9,526.9-526.9S1163,341.6,1163,631.9c0,2.7,0,5.4,0,9.4
		h10.8c0-2.7,0-5.4,0-9.4c0-297-241.9-537.6-537.6-537.6c-297,0-537.6,241.9-537.6,537.6c0,2.7,0,5.4,0,9.4H109.3z"/>
	<path class="st2" d="M87.8,641.3c0-2.7,0-5.4,0-9.4c0-302.4,246-549.7,549.7-549.7c302.4,0,549.7,246,549.7,549.7
		c0,2.7,0,5.4,0,9.4h10.8c0-2.7,0-5.4,0-9.4c0-309.1-251.3-560.5-560.5-560.5S77.1,322.8,77.1,631.9c0,2.7,0,5.4,0,9.4H87.8z"/>
	<path class="st2" d="M63.6,641.3c0-2.7,0-5.4,0-9.4c0-315.8,256.7-572.5,572.5-572.5s572.5,256.7,572.5,572.5c0,2.7,0,5.4,0,9.4
		h10.8c0-2.7,0-5.4,0-9.4c0-321.2-262.1-583.3-583.3-583.3c-321.2,0-583.3,262.1-583.3,583.3c0,2.7,0,5.4,0,9.4
		C52.9,641.3,63.6,641.3,63.6,641.3z"/>
	<path class="st3" d="M1212.7,707.2c2.7-22.8,5.4-47,5.4-71.2H52.9c0,25.5,2.7,51.1,6.7,75.3l33.6,2.7c0,0,13.4,94.1,24.2,104.8
		l-26.9,13.4c14.8,40.3,34.9,79.3,59.1,115.6l29.6-12.1c5.4,18.8,87.4,106.2,87.4,106.2l-21.5,16.1c43,39,92.7,71.2,145.2,95.4
		l5.4-29.6c12.1,10.8,153.2,49.7,153.2,49.7l-2.7,26.9c28.2,4,57.8,6.7,87.4,6.7c26.9,0,53.8-2.7,79.3-5.4l1.3-28.2
		c0,0,122.3-29.6,154.6-51.1l8.1,32.3c52.4-24.2,102.1-56.4,145.2-94.1l-21.5-22.8c20.2-21.5,90-103.5,90-103.5l28.2,16.1
		c25.5-39,47-80.6,63.2-125l-33.6-12.1c22.8-55.1,24.2-102.1,24.2-102.1L1212.7,707.2z"/>
	<path class="st0" d="M1124,637.3c0,268.8-217.7,486.5-486.5,486.5c-267.5,0-485.2-217.7-485.2-486.5s217.7-486.5,485.2-486.5
		C906.3,150.8,1124,368.5,1124,637.3"/>
	<path class="st4" d="M1085.1,629.3c0,247.3-200.3,447.6-447.6,447.6S190,876.5,190,629.3s200.3-447.6,447.6-447.6
		C884.8,181.7,1085.1,382,1085.1,629.3"/>
	<path class="st5" d="M707.4,184.4c0,0-221.8,158.6-32.3,393.8c0,0,177.4,181.4,420.7,29.6"/>
	<path class="st5" d="M946.6,392.7c9.4,33.6-8.1,60.5-36.3,60.5c-29.6,0-60.5-26.9-68.5-61.8c-9.4-33.6,8.1-60.5,36.3-60.5
		C907.7,330.9,938.6,359.1,946.6,392.7z"/>
	<path class="st5" d="M841.8,357.8c0,0-362.9-291.7-630.3,114.2"/>
	<path class="st5" d="M840.5,392.7c0,0-483.8-65.9-615.6,458.3"/>
	<path class="st5" d="M862,431.7c0,0-315.8,200.3-567.2,497.3"/>
	<path class="st5" d="M910.3,453.2c0,0,37.6,365.6-545.7,552.4"/>
	<path class="st5" d="M945.3,434.4c0,0,207,416.6-220.4,654.5"/>
	<path class="st5" d="M366,250.2c0,0-194.9,740.6,659.9,643.8"/>
	<path class="st5" d="M191.3,490.8c0,0,22.8,600.8,661.3,556.4"/>
	<path class="st5" d="M946.6,392.7c0,0,92.7,24.2,123.6,72.6"/>
	<line class="st5" x1="925.1" y1="348.4" x2="962.8" y2="301.3"/>
	<path class="st5" d="M888.8,330.9c0,0-26.9-110.2-91.4-134.4"/>
	<path class="st0" d="M778.6,986.8c4,0,6.7,1.3,9.4,4c2.7,2.7,4,5.4,4,8.1s-1.3,5.4-4,8.1c-2.7,2.7-5.4,4-9.4,4c-4,0-6.7-1.3-9.4-4
		c-2.7-2.7-4-5.4-4-8.1s1.3-5.4,4-8.1C771.9,988.1,774.6,986.8,778.6,986.8"/>
	<polygon class="st0" points="546.1,910.1 546.1,1008.3 530,1008.3 530,910.1 491,910.1 491,895.4 586.4,895.4 586.4,910.1 	"/>
	<path class="st0" d="M602.6,986.8c4,0,6.7,1.3,9.4,4c2.7,2.7,4,5.4,4,8.1s-1.3,5.4-4,8.1s-5.4,4-9.4,4c-4,0-6.7-1.3-9.4-4
		c-2.7-2.7-4-5.4-4-8.1s1.3-5.4,4-8.1C597.2,988.1,599.9,986.8,602.6,986.8"/>
	<path class="st0" d="M739.7,899.4l-5.4,13.4c-5.4-4-13.4-5.4-25.5-5.4c-10.8,0-18.8,4-25.5,13.4c-6.7,8.1-9.4,20.2-9.4,33.6
		s2.7,22.8,9.4,30.9c6.7,8.1,14.8,12.1,25.5,12.1c10.8,0,20.2-4,26.9-10.8l9.4,12.1c-9.4,9.4-21.5,13.4-37.6,13.4
		s-28.2-5.4-37.6-16.1c-9.4-10.8-13.4-24.2-13.4-41.7c0-17.5,5.4-30.9,14.8-41.7c9.4-10.8,22.8-16.1,37.6-16.1
		C722.2,894,732.9,895.4,739.7,899.4"/>
	<path class="st0" d="M718.2,328.2c10.8-1.3,21.5-5.4,30.9-12.1c-9.4-4-20.2-6.7-29.6-8.1c-6.7,0-12.1,1.3-18.8,4
		c-1.3,0-1.3,1.3-1.3,2.7c0,9.4,0,18.8,0,28.2c0,8.1-2.7,12.1-10.8,13.4c-5.4,1.3-10.8,1.3-16.1,0c-8.1-1.3-12.1-6.7-13.4-14.8
		c0-4,0-9.4,0-13.4c2.7,1.3,6.7,1.3,9.4,2.7c6.7,1.3,12.1,0,17.5-4c2.7-2.7,4-5.4,5.4-8.1c-4,1.3-6.7,2.7-10.8,2.7
		c-5.4,0-9.4,0-13.4-1.3c-5.4-2.7-8.1-6.7-8.1-13.4c0-5.4,2.7-10.8,8.1-13.4c2.7-1.3,4-1.3,6.7-2.7c-4-2.7-9.4-4-14.8-2.7
		c0-4,0-9.4,0-13.4c0,0,0-1.3,1.3-1.3c6.7-4,12.1-8.1,18.8-12.1c5.4-2.7,10.8-2.7,14.8,0c4,2.7,8.1,4,12.1,6.7c6.7,4,8.1,4,14.8-1.3
		c2.7-1.3,5.4-4,8.1-5.4c2.7-2.7,6.7-2.7,10.8-1.3c4,1.3,6.7,2.7,10.8,5.4c5.4,2.7,9.4,4,14.8,4v1.3c-1.3,2.7-2.7,5.4-4,8.1
		c-5.4,6.7-9.4,9.4-17.5,6.7c-4-1.3-9.4-2.7-13.4-5.4c-6.7-2.7-10.8-2.7-16.1,2.7c-1.3,1.3-4,2.7-6.7,4s-5.4,1.3-8.1,0
		s-6.7-4-9.4-5.4c-2.7-1.3-4-2.7-6.7-4c-4-2.7-6.7-1.3-10.8,0c5.4,1.3,9.4,2.7,12.1,6.7c-1.3,2.7-2.7,4-4,6.7
		c2.7,1.3,6.7,1.3,9.4,2.7c2.7,1.3,5.4,2.7,8.1,5.4c2.7-1.3,5.4-4,8.1-6.7c5.4-4,10.8-6.7,17.5-6.7c6.7,0,14.8,1.3,21.5,4
		c4,1.3,9.4,2.7,13.4,4c1.3,0,1.3,1.3,1.3,2.7c0,17.5,0,34.9,0,52.4c0,1.3,0,1.3-1.3,2.7c-1.3,1.3-2.7,2.7-2.7,4
		c-5.4,5.4-10.8,6.7-18.8,2.7c-9.4-5.4-14.8-14.8-16.1-25.5C718.2,329.5,718.2,328.2,718.2,328.2 M750.4,320.1
		c-1.3,1.3-4,2.7-5.4,5.4v2.7c0,1.3,1.3,2.7,4,2.7c1.3,0,1.3-1.3,1.3-2.7C750.4,325.5,750.4,322.8,750.4,320.1"/>
	<path class="st0" d="M512.5,314.8V304c0-6.7,0-12.1,0-18.8c0-1.3,0-2.7,1.3-4c9.4-12.1,20.2-18.8,34.9-21.5
		c10.8-1.3,21.5-2.7,32.3,1.3c9.4,2.7,18.8,8.1,24.2,16.1c4,6.7,6.7,13.4,4,20.2c-4,8.1-9.4,13.4-18.8,14.8
		c-5.4,1.3-10.8,0-16.1-1.3c-9.4-2.7-12.1-16.1-5.4-22.8c2.7-4,8.1-4,12.1-2.7c2.7,0,4,1.3,6.7,2.7c1.3,0,2.7,1.3,2.7,4
		c0,1.3,1.3,2.7,2.7,4c1.3,0,4,0,5.4,0c2.7,0,4-2.7,2.7-5.4c-1.3-1.3-2.7-2.7-4-4c-6.7-4-13.4-5.4-21.5-6.7
		c-10.8-1.3-21.5-1.3-32.3,1.3c-6.7,1.3-13.4,4-18.8,8.1c1.3,0,1.3,0,2.7,0c5.4-1.3,10.8,0,16.1,1.3c8.1,2.7,12.1,8.1,12.1,17.5
		c0,8.1-2.7,13.4-9.4,18.8c-1.3,1.3-4,2.7-5.4,4c4,4,8.1,5.4,13.4,2.7c4-2.7,8.1-5.4,12.1-8.1c6.7-6.7,14.8-9.4,24.2-9.4
		c9.4,0,18.8,8.1,20.2,17.5c1.3,12.1-9.4,24.2-20.2,24.2c-2.7,0-6.7,0-9.4-1.3c-4-1.3-6.7-5.4-6.7-9.4c0-1.3,0-2.7,0-4
		c0-5.4,5.4-8.1,10.8-9.4c1.3,0,2.7-1.3,4,1.3c0,0,2.7,1.3,4,1.3c1.3,0,2.7-1.3,2.7-2.7c0-1.3-1.3-2.7-2.7-2.7
		c-5.4-1.3-10.8-2.7-14.8,1.3c-2.7,2.7-4,4-6.7,6.7c-1.3,1.3-1.3,2.7-2.7,5.4c-5.4,9.4-13.4,13.4-22.8,13.4
		c-10.8,0-20.2-4-26.9-10.8c-4-4-6.7-9.4-6.7-14.8c0-2.7,0-4,0-8.1h9.4c5.4,0,10.8,0,16.1-2.7c2.7-1.3,4-2.7,6.7-4
		c2.7-2.7,1.3-6.7-2.7-6.7s-9.4,0-13.4,0C523.3,312.1,517.9,313.4,512.5,314.8"/>
	<path class="st0" d="M640.2,345.7c0,6.7-5.4,12.1-12.1,12.1c-6.7,0-12.1-5.4-12.1-12.1s5.4-12.1,12.1-12.1
		C634.8,333.6,640.2,338.9,640.2,345.7"/>
	<path class="st0" d="M789.4,345.7c0,6.7-5.4,12.1-12.1,12.1c-6.7,0-12.1-5.4-12.1-12.1s5.4-12.1,12.1-12.1
		C784,333.6,789.4,338.9,789.4,345.7"/>
	<polygon class="st6" points="155,325.5 831,576.8 735.6,679 1116,907.5 501.8,668.2 593.2,576.8 	"/>
</g>
</svg>
